<svg width="1916" height="55" viewBox="0 0 1916 55" fill="none" xmlns="http://www.w3.org/2000/svg">
<path d="M-4.5 2.00004C-4.5 2.00004 56.5 33.1016 146 9.00006C235.5 -15.1015 268.5 42.4128 410.5 12.6887C552.5 -17.0354 546 27.0709 650 16.0001C754 4.92924 764.5 20.187 824.5 12.6888C884.5 5.19051 896 11.3237 1009.5 21.5001C1123 31.6764 1108.5 -3.67271 1224.5 21.5001C1340.5 46.6728 1336.5 -24.3134 1476 10.5C1615.5 45.3134 1614 17.2241 1703.5 5.50001C1793 -6.22406 1915.5 11 1915.5 11V55.0001H-4.5V2.00004Z" fill="#111111"/>
</svg>
