<svg width="1920" height="53" viewBox="0 0 1920 53" fill="none" xmlns="http://www.w3.org/2000/svg">
<path d="M0 13.9998C0 13.9998 150.5 36.4999 240 13.9998C329.5 -8.50025 337 32.9997 480 13.9998C623 -5.00002 639.5 21.9997 720 13.9998C800.5 5.99999 769 20.5 829 13.5C889 6.5 846.5 4.49966 960 13.9998C1073.5 23.5 1084 -9.50027 1200 13.9998C1316 37.4999 1350 -18.5003 1489.5 13.9998C1629 46.5 1575.5 32.9998 1739 10C1902.5 -12.9998 1920 13.9998 1920 13.9998V52.9998H0V13.9998Z" fill="#111111"/>
</svg>
